<svg width="58" height="57" fill="none" xmlns="http://www.w3.org/2000/svg"><path d="m38.136 30.147 4.322 4.245 2.578-2.577v2.198c0 7.733-5.459 14.33-13.04 15.77l-.001-32.298c4.55-1.668 6.823-6.748 5.155-11.22-1.668-4.55-6.748-6.824-11.22-5.156-4.474 1.668-6.824 6.748-5.156 11.22.91 2.427 2.805 4.322 5.155 5.156v32.374a16.014 16.014 0 0 1-13.04-15.77V31.89l2.577 2.578 4.322-4.322-9.932-9.856L0 30.146l4.246 4.246 2.577-2.578v2.199c0 12.206 9.932 22.138 22.139 22.138 12.207 0 22.138-9.932 22.138-22.138v-2.199l2.578 2.578L58 30.07l-9.932-9.856-9.932 9.933ZM28.962 11.95a2.638 2.638 0 0 1-2.654-2.653c0-1.441 1.214-2.73 2.654-2.73a2.638 2.638 0 0 1 2.654 2.654c0 1.516-1.137 2.73-2.654 2.73Z" fill="#4B92FD"/></svg>