<svg width="47" height="30" fill="none" xmlns="http://www.w3.org/2000/svg"><path d="M24.736 15.172h2.82V17h-7.73v-1.828h2.82V7.374l-2.82.574V6.086l4.91-.993v10.08ZM38.498 6.116C38.498 1.277 34.72.44 34.72.44c-.072 5.21 3.778 5.677 3.778 5.677ZM35.66 8.954c1.175 5.281 4.705 4.711 4.705 4.711-1.137-4.893-4.705-4.711-4.705-4.711ZM38.485 19.32c-1.105-4.921-4.712-4.701-4.712-4.701 1.127 5.326 4.712 4.701 4.712 4.701ZM42.577 2.33c-3.853 3.602-1.374 6.631-1.374 6.631 3.52-3.393 1.374-6.631 1.374-6.631ZM42.31 14.648c4.935-1.103 4.684-4.757 4.684-4.757-5.333 1.127-4.684 4.757-4.684 4.757ZM40.387 20.32c4.973.24 5.663-3.778 5.663-3.778-5.358-.35-5.663 3.778-5.663 3.778ZM35.664 24.682c4.87 1.446 6.628-2.088 6.628-2.088-5.237-1.618-6.628 2.088-6.628 2.088ZM12.278.44S8.5 1.276 8.5 6.11c-.003 0 3.864-.468 3.778-5.67ZM8.512 19.303s3.585.618 4.712-4.698c0 0-3.607-.22-4.712 4.698ZM11.334 8.96s-3.558-.175-4.709 4.705c-.01-.017 3.52.553 4.709-4.705ZM.945 16.514s.687 4.028 5.663 3.778c0 0-.305-4.122-5.663-3.778ZM4.427 2.323S2.277 5.56 5.8 8.947c.004.007 2.477-3.025-1.373-6.624ZM4.719 22.57s1.758 3.53 6.617 2.084c0 0-1.373-3.709-6.617-2.084ZM4.686 14.634S5.34 11.02.002 9.884c0 0-.247 3.647 4.684 4.75ZM23.577 27.716a.945.945 0 1 0 0 1.89.945.945 0 0 0 0-1.89Z" fill="#fff"/></svg>