<svg width="54" height="30" fill="none" xmlns="http://www.w3.org/2000/svg"><path d="M26.35 8.412c0 .674-.157 1.324-.47 1.951a8.6 8.6 0 0 1-1.203 1.76 13.814 13.814 0 0 1-1.62 1.567c-.592.476-1.167.912-1.724 1.307v.174h5.33V17h-8.291v-1.725l1.707-1.358c.464-.372.94-.767 1.428-1.185.5-.418.947-.848 1.341-1.289a7.38 7.38 0 0 0 .976-1.358c.255-.477.383-.959.383-1.446 0-.57-.186-.993-.557-1.272-.372-.29-.865-.435-1.48-.435-.64 0-1.26.104-1.865.313a5.248 5.248 0 0 0-1.567.801V6.217c.371-.278.882-.528 1.532-.749a6.851 6.851 0 0 1 2.178-.33 5.5 5.5 0 0 1 1.55.208c.476.128.889.331 1.237.61.348.267.621.61.819 1.028.197.406.296.882.296 1.428Zm10.243-2.909v1.76H31.28l-.209 2.612c.128-.023.308-.052.54-.087.232-.034.488-.052.766-.052 1.301 0 2.329.296 3.084.888.755.593 1.132 1.516 1.132 2.77 0 .732-.134 1.353-.4 1.864-.256.5-.61.912-1.063 1.237-.453.313-.987.54-1.603.68a8.24 8.24 0 0 1-1.968.226c-.732 0-1.359-.076-1.882-.227-.51-.14-.9-.279-1.167-.418v-1.812a7.55 7.55 0 0 0 1.446.47c.57.129 1.15.193 1.742.193.372 0 .72-.035 1.045-.105.337-.081.627-.21.871-.383.256-.175.453-.4.593-.68.15-.278.226-.615.226-1.01 0-.674-.22-1.161-.662-1.463-.43-.314-1.063-.47-1.899-.47a10.032 10.032 0 0 0-2.996.47l.523-6.463h7.194ZM45.496 6.12c0-4.843-3.78-5.682-3.78-5.682-.072 5.214 3.78 5.681 3.78 5.681ZM42.656 8.958c1.176 5.286 4.708 4.716 4.708 4.716-1.137-4.898-4.708-4.716-4.708-4.716ZM45.48 19.332c-1.106-4.925-4.714-4.705-4.714-4.705 1.127 5.33 4.715 4.705 4.715 4.705ZM49.574 2.33C45.72 5.935 48.2 8.966 48.2 8.966c3.522-3.395 1.374-6.636 1.374-6.636ZM49.31 14.656c4.938-1.103 4.688-4.76 4.688-4.76-5.337 1.128-4.688 4.76-4.688 4.76ZM47.383 20.332c4.976.241 5.667-3.78 5.667-3.78-5.361-.35-5.667 3.78-5.667 3.78ZM42.656 24.698c4.873 1.446 6.633-2.09 6.633-2.09-5.24-1.619-6.633 2.09-6.633 2.09ZM12.288.438s-3.78.839-3.78 5.674c-.004 0 3.866-.467 3.78-5.674ZM8.52 19.315s3.587.619 4.715-4.701c0 0-3.609-.22-4.715 4.701ZM11.345 8.965s-3.56-.175-4.712 4.708c-.01-.017 3.522.554 4.712-4.708ZM.95 16.524s.686 4.031 5.666 3.78c0 0-.306-4.123-5.667-3.78ZM4.431 2.323S2.28 5.564 5.806 8.953c.003.006 2.478-3.028-1.375-6.63ZM4.719 22.584s1.76 3.532 6.622 2.086c0 0-1.375-3.712-6.622-2.086ZM4.69 14.642S5.343 11.027.002 9.89c0 0-.248 3.65 4.688 4.752ZM27.078 27.729a.946.946 0 1 0 0 1.891.946.946 0 0 0 0-1.892Z" fill="#fff"/></svg>