<svg width="395" height="98" fill="none" xmlns="http://www.w3.org/2000/svg"><path fill-rule="evenodd" clip-rule="evenodd" d="M239.112 30.893h-259.6C18.495 11.179 62.553 0 109.33 0c46.813 0 90.872 11.18 129.782 30.893ZM88.306 86.813c10.728 0 22.647-3.56 36.256-7.623 18.104-5.405 39.197-11.703 64.451-11.703 28.106 0 49.658 7.432 64.864 12.677 6.89 2.376 12.478 4.303 16.782 4.885 8.166 1.035 20.994.825 38.456.538l4.852-.08C303.632 75 292.474 65.196 280.529 56.344H-61.896C-74.34 65.618-86 75.915-96.8 87.024l185.106-.211Zm300.43 138.803-67.019 1.058c-4.179 0-9.757.955-17.544 2.289h-.001c-18.002 3.082-47.809 8.185-99.434 8.185l-23.603-.176c-48.749 0-84.168-5.132-109.007-8.732-9.491-1.375-17.438-2.526-23.993-3.082h-218.223c-2.11 10.156-3.576 20.595-4.506 31.175H54.894c7.542 0 21.46-1.794 38.384-3.975 26.246-3.383 59.722-7.698 87.857-7.698l22.96-.564c27.575 0 52.637 4 72.824 7.222 13.612 2.173 25.007 3.992 33.461 3.992l82.755.529a278.422 278.422 0 0 0-4.399-30.223ZM48.67 197.676c-13.71 1.395-23.61 2.403-27.097 2.403l-185.249.07c3.218-10.403 6.902-20.56 11.229-30.434H28.261c28.538 4.972 93.447 13.295 140.868 12.555l46.276-.67c61.083 1.833 114.833-8.923 127.708-11.673l27.93-.247c4.149 9.592 7.868 19.431 11.015 29.447l-46.849-.036c-8.881 0-20.24-1.467-34.171-3.266-22.08-2.852-50.62-6.538-85.99-6.538l-45.526.141c-39.795 0-89.981 5.107-120.851 8.248Zm21.969-57.822c26.188-3.615 65.682-9.068 110.481-9.068l22.924.142c41.493 0 67.425 3.262 87.734 5.816h.001c7.942 1 15.024 1.89 21.841 2.436l42.414 1.34c-5.615-9.734-11.873-19.079-18.597-28.001l-47.385 2.786c-3.346.322-7.529.997-12.663 1.827-15.114 2.441-38.472 6.213-72.988 6.213l-23.281.353c-38.277 0-65.628-4.076-86.658-7.209-7.519-1.121-14.23-2.121-20.343-2.771h-193.833c-7.045 9.345-13.375 19.114-19.24 29.27H42.469c5.466 0 15.181-1.341 28.17-3.134Z" fill="#fff" opacity=".05"/></svg>