<svg width="178" height="169" fill="none" xmlns="http://www.w3.org/2000/svg"><path d="M176.01 80.48a7.002 7.002 0 0 1-.008 8.234l-12.859 17.644a6.996 6.996 0 0 0-1.343 4.122v21.928a7 7 0 0 1-4.844 6.66l-20.786 6.73a6.998 6.998 0 0 0-3.51 2.548l-12.864 17.726a7 7 0 0 1-7.843 2.541l-20.775-6.8a6.988 6.988 0 0 0-4.356 0l-20.775 6.8a7 7 0 0 1-7.843-2.541L45.34 148.346a6.993 6.993 0 0 0-3.51-2.548l-20.786-6.73a7 7 0 0 1-4.844-6.66V110.48c0-1.481-.47-2.925-1.343-4.122L1.998 88.714a7 7 0 0 1-.008-8.235l12.875-17.74a7 7 0 0 0 1.335-4.111V36.774a7 7 0 0 1 4.822-6.652l20.83-6.82a7 7 0 0 0 3.48-2.529L58.211 3.1A7 7 0 0 1 66.025.562l20.819 6.74a7 7 0 0 0 4.312 0l20.818-6.74a7 7 0 0 1 7.813 2.537l12.882 17.674a6.996 6.996 0 0 0 3.479 2.53l20.83 6.819a7 7 0 0 1 4.822 6.652v21.854c0 1.477.467 2.916 1.335 4.111l12.875 17.74Z" fill="#fff"/></svg>