<svg width="180" height="180" fill="none" xmlns="http://www.w3.org/2000/svg"><path d="M90 135c24.853 0 45-20.147 45-45s-20.147-45-45-45-45 20.147-45 45 20.147 45 45 45Z" fill="#fff"/><path d="M45 180c24.853 0 45-20.147 45-45S69.853 90 45 90 0 110.147 0 135s20.147 45 45 45ZM135 180c24.853 0 45-20.147 45-45s-20.147-45-45-45-45 20.147-45 45 20.147 45 45 45ZM45 90c24.853 0 45-20.147 45-45S69.853 0 45 0 0 20.147 0 45s20.147 45 45 45ZM135 90c24.853 0 45-20.147 45-45S159.853 0 135 0 90 20.147 90 45s20.147 45 45 45Z" fill="#fff"/></svg>