<svg width="197" height="190" fill="none" xmlns="http://www.w3.org/2000/svg"><path d="M125.335 3.459c2.667-1.538 5.998.387 5.998 3.465v28.64a4 4 0 0 1-1.993 3.46l-24.833 14.403c-2.667 1.547-6.007-.377-6.007-3.46V21.245a4 4 0 0 1 2.002-3.465l24.833-14.321ZM65.666 68.921c0 3.078-3.331 5.003-5.998 3.465l-24.833-14.32a4 4 0 0 1-2.002-3.466V25.858c0-3.078 3.332-5.003 5.998-3.465l24.834 14.32a4 4 0 0 1 2.001 3.466V68.92ZM5.983 117.183c-2.661-1.544-2.657-5.388.009-6.925l24.843-14.327a4 4 0 0 1 3.997 0l24.843 14.327c2.665 1.537 2.67 5.381.009 6.925L34.84 131.592a4 4 0 0 1-4.014 0L5.983 117.183ZM92.502 136.215c2.667-1.537 5.998.387 5.998 3.465v28.633c0 1.43-.763 2.751-2.001 3.466l-24.834 14.32c-2.666 1.538-5.998-.387-5.998-3.465v-28.633a4 4 0 0 1 2.002-3.465l24.833-14.321ZM164.166 163.7c0 3.078-3.331 5.003-5.998 3.465l-24.833-14.321a3.999 3.999 0 0 1-2.002-3.465v-28.722c0-3.083 3.34-5.007 6.007-3.46l24.833 14.403a4 4 0 0 1 1.993 3.46v28.64ZM137.342 79.31c-2.669-1.539-2.669-5.39 0-6.93l24.826-14.317a4.001 4.001 0 0 1 3.997 0l24.826 14.317c2.669 1.54 2.669 5.391 0 6.93l-24.826 14.317a4 4 0 0 1-3.997 0L137.342 79.31Z" fill="#fff"/></svg>