<svg width="60" height="60" fill="none" xmlns="http://www.w3.org/2000/svg"><g clip-path="url('#clip0_1100_6111')"><path d="M30 58c15.464 0 28-12.536 28-28S45.464 2 30 2 2 14.536 2 30s12.536 28 28 28Z" fill="#fff"/><path d="M56.258 39.739A27.937 27.937 0 0 0 58 29.999c0-3.424-.616-6.705-1.742-9.738H3.742A27.94 27.94 0 0 0 2 30c0 3.425.616 6.706 1.742 9.739L30 42.174l26.258-2.435Z" fill="#0052B4"/><path d="M30 58c12.039 0 22.302-7.598 26.258-18.26H3.741C7.698 50.401 17.961 58 30 58Z" fill="#D80027"/></g><rect x="2" y="2" width="56" height="56" rx="28" stroke="#DDDEE1" stroke-width="3"/><defs><clipPath id="clip0_1100_6111"><rect x="2" y="2" width="56" height="56" rx="28" fill="#fff"/></clipPath></defs></svg>