<svg width="40" height="40" fill="none" xmlns="http://www.w3.org/2000/svg"><g clip-path="url('#clip0_1366_1624')"><mask id="mask0_1366_1624" style="mask-type:alpha" maskUnits="userSpaceOnUse" x="0" y="6" width="35" height="27"><path d="M0 6h34.24v26.45H0V6Z" fill="#fff"/></mask><g mask="url('#mask0_1366_1624')"><path fill-rule="evenodd" clip-rule="evenodd" d="M10.348 11.644c-.826 0-1.494-.646-1.494-1.441 0-.797.668-1.441 1.494-1.441.825 0 1.493.644 1.493 1.44 0 .796-.668 1.442-1.493 1.442Zm-2.738 9.5c-.29.279-.67.417-1.049.417-.383 0-.766-.142-1.058-.425-1.974-1.92-2.959-3.942-2.928-6.011.038-2.674 1.768-4.34 1.964-4.522a1.531 1.531 0 0 1 2.107.049 1.402 1.402 0 0 1-.042 2.024c-.473.454-2.633 2.89 1.015 6.437a1.401 1.401 0 0 1-.01 2.032Zm19.028-15.11c-7.182-.535-9.58 5.303-9.58 5.303S15.272 5.499 8.09 6.035C.886 6.57-1.86 14.328 1.292 19.473c2.95 4.814 8.862 9.794 15.173 12.907.372.184.815.184 1.188 0 6.31-3.113 12.222-8.093 15.172-12.907 3.152-5.145 1.016-12.902-6.187-13.438Z" fill="#00B0CA"/></g></g><defs><clipPath id="clip0_1366_1624"><path fill="#fff" transform="translate(0 6)" d="M0 0h35v27H0z"/></clipPath></defs></svg>