<svg width="40" height="40" fill="none" xmlns="http://www.w3.org/2000/svg"><g clip-path="url('#clip0_1366_1623')"><path fill-rule="evenodd" clip-rule="evenodd" d="M25.962 22.488c.508.152.866.603.929 1.128a11.05 11.05 0 0 1-.338 4.314c-1.154 4.134-4.715 7.292-8.971 7.924C10.699 36.878 4.78 31.59 4.78 24.922c0-.707-.008-1.948.674-2.183 6.718-2.295 13.844-2.267 20.508-.252ZM20.97 11.997c0 .397-.325.72-.724.72h-2.545v2.537c0 .4-.324.72-.724.72h-1.785a.721.721 0 0 1-.723-.72v-2.537h-2.544a.722.722 0 0 1-.723-.72v-1.78c0-.398.323-.72.723-.72h2.544V6.96c0-.4.325-.722.723-.722h1.785c.4 0 .724.323.724.722v2.536h2.545c.4 0 .724.323.724.721v1.78ZM1.9 5.707a1.64 1.64 0 0 0-.992 2.155l4.37 10.999a1.646 1.646 0 0 0 2.046.953 27.853 27.853 0 0 1 17.524 0 1.645 1.645 0 0 0 2.045-.953c1.458-3.668 2.913-7.333 4.369-11a1.64 1.64 0 0 0-.99-2.154 43.029 43.029 0 0 0-28.372 0Z" fill="#00B0CA"/></g><defs><clipPath id="clip0_1366_1623"><path fill="#fff" transform="translate(0 3)" d="M0 0h32v33H0z"/></clipPath></defs></svg>