<svg width="32" height="32" fill="none" xmlns="http://www.w3.org/2000/svg"><mask id="mask0_1497_2935" style="mask-type:alpha" maskUnits="userSpaceOnUse" x="0" y="0" width="32" height="32"><circle cx="16" cy="16" r="16" fill="#005BFF"/></mask><g mask="url('#mask0_1497_2935')"><circle cx="16" cy="16" r="16" fill="#005BFF"/><path d="M11 35V16h10l14 15.5L11 35Z" fill="#E3325D"/><path d="M16.003 10.5c-4.145 0-7.503 2.386-7.503 5.329 0 2.944 3.36 5.328 7.503 5.328 4.145 0 7.503-2.386 7.503-5.328 0-2.943-3.36-5.329-7.503-5.329Zm0 8.17C13.14 18.67 11 17.17 11 15.83c0-1.341 2.14-2.843 5.003-2.843s5.003 1.502 5.003 2.843c0 1.34-2.14 2.842-5.003 2.842Z" fill="#fff"/><path d="M16.003 18.67C13.14 18.67 11 17.17 11 15.83c0-1.341 2.14-2.843 5.003-2.843s5.003 1.502 5.003 2.843c0 1.34-2.14 2.842-5.003 2.842Z" fill="#E3325D"/></g></svg>