<svg width="67" height="64" fill="none" xmlns="http://www.w3.org/2000/svg"><path fill-rule="evenodd" clip-rule="evenodd" d="M31.598 5.855c.6-1.843 3.206-1.843 3.805 0l5.554 17.102a2 2 0 0 0 1.902 1.382h17.986c1.938 0 2.743 2.48 1.176 3.618L47.468 38.532a2 2 0 0 0-.726 2.236l5.56 17.097c.598 1.843-1.511 3.376-3.079 2.237l-14.546-10.57a2 2 0 0 0-2.352 0l-14.547 10.57c-1.567 1.14-3.676-.393-3.077-2.236l5.558-17.098a2 2 0 0 0-.727-2.236L4.98 27.957c-1.567-1.139-.762-3.618 1.176-3.618h17.983a2 2 0 0 0 1.902-1.381l5.558-17.103Z" fill="#DA2F2A"/></svg>