<svg width="32" height="32" fill="none" xmlns="http://www.w3.org/2000/svg"><path fill-rule="evenodd" clip-rule="evenodd" d="M29.334 16c0 7.364-5.97 13.333-13.334 13.333-7.363 0-13.333-5.97-13.333-13.333C2.667 8.636 8.637 2.666 16 2.666c7.364 0 13.334 5.97 13.334 13.334Zm-12.856-3.49c-1.297.54-3.889 1.656-7.776 3.35-.63.25-.961.496-.992.736-.05.405.458.565 1.15.783l.291.093c.681.22 1.597.48 2.073.49.432.01.914-.169 1.446-.534 3.632-2.452 5.506-3.69 5.624-3.717.083-.02.198-.043.276.027.078.069.07.2.062.235-.05.215-2.045 2.07-3.077 3.029-.322.299-.55.511-.597.56-.104.108-.21.21-.313.31-.633.61-1.107 1.067.026 1.813.544.359.98.656 1.415.952.475.323.948.645 1.56 1.047.157.102.306.208.45.312.553.394 1.05.748 1.663.691.356-.033.724-.368.91-1.367.443-2.361 1.31-7.477 1.511-9.586a2.348 2.348 0 0 0-.022-.525.561.561 0 0 0-.19-.36c-.16-.13-.406-.158-.516-.156-.502.01-1.271.277-4.974 1.817Z" fill="#00B0CA"/></svg>