<svg width="284" height="337" fill="none" xmlns="http://www.w3.org/2000/svg"><g opacity=".05" fill-rule="evenodd" clip-rule="evenodd" fill="#fff"><path d="M415.112-195.107H155.513C194.494-214.821 238.553-226 285.33-226c46.813 0 90.872 11.179 129.782 30.893Zm-150.806 55.92c10.728 0 22.647-3.559 36.256-7.623 18.104-5.405 39.197-11.703 64.451-11.703 28.106 0 49.658 7.432 64.864 12.677 6.89 2.376 12.478 4.303 16.782 4.885 8.166 1.035 20.994.825 38.456.538l4.852-.079c-10.335-10.509-21.493-20.313-33.438-29.165H114.104C101.659-160.382 90-150.084 79.2-138.976l185.106-.211ZM564.736-.384 497.717.674c-4.179 0-9.757.955-17.544 2.289h-.001c-18.002 3.082-47.809 8.185-99.434 8.185l-23.603-.176c-48.749 0-84.168-5.132-109.007-8.732C238.637.865 230.69-.286 224.135-.842H5.912C3.802 9.314 2.336 19.753 1.406 30.333h229.488c7.542 0 21.46-1.794 38.384-3.975 26.246-3.383 59.722-7.698 87.857-7.698l22.96-.564c27.575 0 52.637 4 72.824 7.222 13.612 2.173 25.007 3.992 33.461 3.992l82.755.53a278.385 278.385 0 0 0-4.399-30.224ZM224.67-28.324c-13.71 1.395-23.61 2.403-27.097 2.403l-185.25.07c3.22-10.403 6.903-20.56 11.23-30.434h180.708c28.538 4.972 93.447 13.295 140.868 12.555l46.276-.67c61.083 1.833 114.833-8.923 127.708-11.673l27.93-.247c4.149 9.592 7.868 19.431 11.015 29.447l-46.849-.036c-8.881 0-20.24-1.467-34.171-3.266-22.08-2.852-50.62-6.538-85.99-6.538l-45.526.142c-39.795 0-89.981 5.106-120.851 8.247h-.001Zm21.969-57.822c26.188-3.615 65.682-9.067 110.481-9.067l22.924.14c41.493 0 67.425 3.263 87.734 5.817h.001c7.942 1 15.024 1.89 21.841 2.436l42.414 1.34c-5.615-9.733-11.873-19.079-18.597-28.001l-47.385 2.786c-3.346.322-7.529.997-12.663 1.827-15.114 2.441-38.472 6.213-72.988 6.213l-23.281.353c-38.277 0-65.628-4.076-86.658-7.209-7.519-1.121-14.23-2.121-20.343-2.771H56.286c-7.045 9.345-13.375 19.114-19.24 29.27H218.47c5.466 0 15.181-1.34 28.17-3.134ZM457.33 55.061c-38.266 0-65.624 9.31-88.834 9.31-23.138 0-56.04-9.31-74.493-9.31H0c0 155.275 127.565 281.103 285.062 281.103 157.355 0 284.991-125.828 284.991-281.103H457.33Z"/></g></svg>