<svg width="134" height="30" fill="none" xmlns="http://www.w3.org/2000/svg"><g clip-path="url('#clip0_1281_5348')"><path fill-rule="evenodd" clip-rule="evenodd" d="m52.387 16.396-.03.289c-.355 3.735-3.091 6.144-6.974 6.144-2.244 0-4.172-.735-5.57-2.124-1.416-1.408-2.198-3.409-2.198-5.642 0-2.346.76-4.34 2.195-5.764 1.397-1.389 3.326-2.12 5.573-2.12 3.698 0 6.45 2.178 6.844 5.428l.036.292-3.775.002-.034-.225c-.194-1.29-1.54-2.3-3.07-2.3-1.082 0-1.963.328-2.613.975-.815.811-1.264 2.131-1.264 3.712 0 1.51.44 2.783 1.247 3.585.657.653 1.54.985 2.63.985 1.773 0 2.951-1.11 3.212-3.02l.017-.217h3.774ZM57.68 19.443c.392.392.932.589 1.608.589.677 0 1.227-.204 1.625-.6.662-.654.798-1.706.798-2.471 0-.778-.136-1.843-.798-2.498-.395-.392-.942-.594-1.625-.594-.674 0-1.214.199-1.606.589-.663.656-.799 1.723-.799 2.503 0 .772.136 1.828.797 2.482Zm1.608-8.265c1.806 0 3.327.563 4.403 1.631 1.04 1.032 1.59 2.47 1.59 4.152 0 1.672-.55 3.1-1.584 4.13-1.078 1.07-2.603 1.633-4.41 1.633-1.796 0-3.311-.564-4.385-1.629-1.038-1.031-1.586-2.46-1.586-4.134 0-1.697.546-3.14 1.58-4.165 1.065-1.06 2.586-1.618 4.392-1.618ZM75.682 19.443c.392.392.934.589 1.608.589.677 0 1.223-.204 1.629-.6.658-.654.796-1.706.796-2.471 0-.778-.138-1.843-.796-2.498-.4-.392-.946-.594-1.63-.594-.673 0-1.215.199-1.607.589-.657.656-.797 1.723-.797 2.503 0 .772.134 1.828.797 2.482Zm1.608-8.265c1.806 0 3.327.563 4.405 1.631 1.036 1.032 1.585 2.47 1.585 4.152 0 1.672-.55 3.1-1.581 4.13-1.078 1.07-2.6 1.633-4.41 1.633-1.798 0-3.313-.564-4.387-1.629-1.034-1.031-1.586-2.46-1.586-4.134 0-1.697.55-3.14 1.58-4.165 1.068-1.06 2.588-1.618 4.394-1.618Z" fill="#fff"/><mask id="mask0_1281_5348" style="mask-type:alpha" maskUnits="userSpaceOnUse" x="0" y="0" width="134" height="30"><path d="M0 29.887h133.747V0H0v29.887Z" fill="#fff"/></mask><g mask="url('#mask0_1281_5348')" fill-rule="evenodd" clip-rule="evenodd" fill="#fff"><path d="M66.518 22.459h3.565V7.496h-3.565V22.46ZM97.486 22.459h3.565V7.496h-3.565V22.46ZM131.524 13.902h2.224V11.45l-2.224.002V8.315h-3.565v3.137l-1.836-.002-.002 2.452h1.838v5.9c0 .8.227 1.434.684 1.88.785.782 2.125.874 3.065.874.777 0 1.37-.036 1.815-.105l.225-.034v-2.79l-.317.058c-.278.05-.553.077-.891.077-.464 0-.727-.056-.846-.176-.119-.113-.17-.353-.17-.773v-4.91ZM92.72 16.973c0-1.07-.308-1.991-.842-2.524-.394-.39-.912-.588-1.542-.588-.644 0-1.165.194-1.548.577-.526.52-.811 1.42-.811 2.535 0 1.076.283 1.95.802 2.466.392.386.923.587 1.582.587.652 0 1.18-.2 1.566-.585.659-.647.793-1.701.793-2.468Zm-4.638 9.139h-3.57l.004-.263v-14.4.004h3.05l.364.83.018.05.038-.038c.75-.735 1.791-1.125 3.014-1.125 1.497 0 2.724.467 3.647 1.384 1.06 1.051 1.64 2.649 1.64 4.501 0 1.707-.591 3.274-1.625 4.298-.897.89-2.107 1.363-3.49 1.363-1.174 0-2.25-.396-3.03-1.116l-.06-.056v4.568ZM108.246 20.026c.661 0 1.189-.2 1.58-.585.521-.518.804-1.392.804-2.468 0-1.116-.287-2.016-.811-2.535-.384-.383-.904-.578-1.55-.578-.628 0-1.147.2-1.54.59-.536.53-.844 1.452-.844 2.523 0 .767.138 1.82.793 2.468.389.388.917.585 1.568.585Zm5.845 2.409h-3.029l-.405-.945.005-.09-.064.066c-.774.794-1.929 1.252-3.163 1.252-1.387 0-2.595-.473-3.49-1.365-1.034-1.024-1.627-2.591-1.627-4.298 0-1.852.582-3.45 1.639-4.501.926-.917 2.153-1.384 3.652-1.384 1.219 0 2.261.39 3.012 1.125l.034.037.383-.879 3.053-.004v10.986ZM118.751 19.095c.25 1.088 1.612 1.172 2.024 1.172.168 0 1.032-.023 1.472-.458a.836.836 0 0 0 .249-.61c0-.655-1.219-.951-3.227-1.36-1.206-.251-3.715-.77-3.715-3.049 0-.962.302-1.751.901-2.344.851-.847 2.255-1.277 4.171-1.277 3.1 0 4.871 1.202 5.126 3.477l-3.424-.023c-.076-.442-.357-1.003-1.787-1.003-.787 0-1.127.17-1.272.317a.518.518 0 0 0-.151.388c0 .647 1.111.868 2.393 1.125.273.054.555.11.838.173 1.206.262 3.714.806 3.714 3.19 0 1.025-.33 1.874-.981 2.52-1.152 1.143-2.988 1.385-4.326 1.385-1.614 0-2.91-.323-3.852-.964-.925-.628-1.461-1.528-1.584-2.676l3.431.017ZM21.907 1.64h-13.7a15.041 15.041 0 0 1 6.851-1.642c2.47 0 4.796.594 6.85 1.643Zm-7.959 2.974c.567 0 1.196-.19 1.914-.406.955-.287 2.068-.622 3.401-.622 1.483 0 2.62.395 3.423.674.364.126.659.229.886.26.43.055 1.108.044 2.03.028l.256-.004a15.064 15.064 0 0 0-1.765-1.55H6.022a15.483 15.483 0 0 0-1.842 1.63l9.768-.01Zm15.855 7.38-3.537.056c-.22 0-.514.05-.925.121-.95.164-2.524.436-5.248.436l-1.246-.01c-2.572 0-4.441-.272-5.752-.464-.501-.073-.92-.134-1.267-.164H.313c-.111.54-.189 1.095-.238 1.658h12.111c.398 0 1.133-.096 2.026-.212 1.385-.18 3.152-.409 4.636-.409l1.212-.03c1.455 0 2.778.213 3.843.384.719.116 1.32.212 1.766.212l4.367.029a14.912 14.912 0 0 0-.232-1.607Zm-17.946-1.486c-.724.074-1.246.128-1.43.128L.65 10.64c.17-.554.365-1.094.593-1.619h9.537c1.506.265 4.931.707 7.434.668l2.442-.036c3.224.098 6.06-.474 6.74-.62l1.474-.013c.219.51.415 1.033.581 1.565l-2.472-.002c-.47 0-1.069-.078-1.804-.173-1.165-.152-2.671-.348-4.538-.348l-2.402.008c-2.1 0-4.75.271-6.378.438Zm1.16-3.074c1.381-.192 3.465-.482 5.83-.482l1.21.007c2.19 0 3.558.174 4.63.31.419.053.792.1 1.152.129l2.239.071a14.616 14.616 0 0 0-.982-1.489l-2.5.149c-.177.017-.398.053-.669.097-.797.13-2.03.33-3.852.33l-1.228.019c-2.02 0-3.464-.217-4.574-.383-.396-.06-.75-.113-1.073-.148H2.97A15.213 15.213 0 0 0 1.955 7.6h9.575c.288 0 .8-.07 1.486-.166ZM24.135 14.941c-2.02 0-3.463.495-4.688.495-1.221 0-2.957-.495-3.931-.495H0c0 8.256 6.732 14.946 15.044 14.946 8.304 0 15.04-6.69 15.04-14.946h-5.949Z"/></g></g><defs><clipPath id="clip0_1281_5348"><path fill="#fff" d="M0 0h134v30H0z"/></clipPath></defs></svg>